<svg xmlns="http://www.w3.org/2000/svg" width="128" height="128" version="1.1"><path fill="#99E39B" d="M0 0 C1.37961914 -0.03673828 1.37961914 -0.03673828 2.78710938 -0.07421875 C3.67076172 -0.07808594 4.55441406 -0.08195313 5.46484375 -0.0859375 C6.27429443 -0.09415527 7.08374512 -0.10237305 7.91772461 -0.11083984 C10.0625 0.375 10.0625 0.375 11.84985352 2.09130859 C13.25332371 4.7343648 13.308362 6.42465595 13.0625 9.375 C13.70799805 9.35405273 14.35349609 9.33310547 15.01855469 9.31152344 C17.94971068 9.22825795 20.88061777 9.17630794 23.8125 9.125 C24.82828125 9.09148438 25.8440625 9.05796875 26.890625 9.0234375 C34.40591493 8.92455211 34.40591493 8.92455211 37.75 11.21875 C39.32442512 13.80530556 39.39336214 15.39724072 39.0625 18.375 C40.7125 18.705 42.3625 19.035 44.0625 19.375 C44.11645478 20.99963842 44.15527195 22.62478541 44.1875 24.25 C44.21070312 25.15492187 44.23390625 26.05984375 44.2578125 26.9921875 C44.0625 29.375 44.0625 29.375 42.0625 31.375 C41.0725 31.375 40.0825 31.375 39.0625 31.375 C39.0625 32.365 39.0625 33.355 39.0625 34.375 C40.07570312 34.32279297 40.07570312 34.32279297 41.109375 34.26953125 C42.00140625 34.24246094 42.8934375 34.21539062 43.8125 34.1875 C45.13507813 34.13529297 45.13507813 34.13529297 46.484375 34.08203125 C49.58369245 34.43422641 50.90698656 35.13387037 53.0625 37.375 C53.0625 38.695 53.0625 40.015 53.0625 41.375 C55.0425 41.87 55.0425 41.87 57.0625 42.375 C57.1875 50.125 57.1875 50.125 56.0625 52.375 C55.0725 52.375 54.0825 52.375 53.0625 52.375 C53.01762451 53.09526367 52.97274902 53.81552734 52.92651367 54.55761719 C52.44005382 62.28524092 51.92174355 70.01023769 51.38330078 77.734375 C51.16141845 80.92145847 50.94729785 84.10895475 50.73779297 87.296875 C50.46435913 91.43392527 50.17010774 95.56907642 49.86270142 99.70373535 C49.7459112 101.31776348 49.63586177 102.93229354 49.53256226 104.54724121 C49.38591971 106.81965934 49.21538617 109.08909394 49.0390625 111.359375 C48.94705566 112.66616211 48.85504883 113.97294922 48.76025391 115.31933594 C48.0625 118.375 48.0625 118.375 46.00146484 119.81347656 C45.36160645 119.9987793 44.72174805 120.18408203 44.0625 120.375 C44.10375 121.32375 44.145 122.2725 44.1875 123.25 C44.0625 126.375 44.0625 126.375 42.0625 128.375 C39.39315905 128.57871324 36.82712927 128.65819469 34.15625 128.6496582 C32.93168091 128.6573246 32.93168091 128.6573246 31.68237305 128.66514587 C28.97567476 128.67908058 26.26922995 128.67808238 23.5625 128.67578125 C21.68684799 128.67966573 19.81119685 128.68399989 17.93554688 128.68876648 C14.00127309 128.69623681 10.06708904 128.69593131 6.1328125 128.69067383 C1.08168556 128.68487472 -3.96907524 128.70181689 -9.0201416 128.7250185 C-12.89422771 128.73972204 -16.76822492 128.74063223 -20.64233398 128.73750877 C-22.50513434 128.73802358 -24.36793947 128.743291 -26.23071289 128.75332069 C-28.83113689 128.76560412 -31.4308383 128.75894291 -34.03125 128.74731445 C-34.80637939 128.75495819 -35.58150879 128.76260193 -36.38012695 128.77047729 C-38.52148438 128.7492218 -38.52148438 128.7492218 -41.9375 128.375 C-44.0894437 125.14708445 -44.13836443 124.09099191 -43.9375 120.375 C-44.5759082 120.19606201 -45.21431641 120.01712402 -45.87207031 119.83276367 C-47.9375 118.375 -47.9375 118.375 -48.66699219 115.1730957 C-48.7927529 113.80067422 -48.89702687 112.42618184 -48.984375 111.05078125 C-49.07576752 109.94309639 -49.07576752 109.94309639 -49.16900635 108.81303406 C-49.29521152 107.24087077 -49.4122819 105.66795196 -49.52099609 104.09448242 C-49.68385934 101.74012935 -49.87229198 99.3890693 -50.06640625 97.03710938 C-52.10009799 71.36259916 -52.10009799 71.36259916 -49.9375 64.375 C-50.5975 64.375 -51.2575 64.375 -51.9375 64.375 C-52.2675 60.415 -52.5975 56.455 -52.9375 52.375 C-54.2575 52.045 -55.5775 51.715 -56.9375 51.375 C-56.9375 48.405 -56.9375 45.435 -56.9375 42.375 C-54.9575 41.88 -54.9575 41.88 -52.9375 41.375 C-52.834375 40.59125 -52.73125 39.8075 -52.625 39 C-51.9375 36.375 -51.9375 36.375 -48.9375 34.375 C-46.45703125 34.1796875 -46.45703125 34.1796875 -43.75 34.25 C-42.84894531 34.26804688 -41.94789062 34.28609375 -41.01953125 34.3046875 C-40.33246094 34.32789063 -39.64539063 34.35109375 -38.9375 34.375 C-38.9375 33.385 -38.9375 32.395 -38.9375 31.375 C-39.576875 31.230625 -40.21625 31.08625 -40.875 30.9375 C-42.9375 30.375 -42.9375 30.375 -43.9375 29.375 C-44.00955511 27.68891034 -44.02136068 25.99999341 -44 24.3125 C-43.99097656 23.39339844 -43.98195313 22.47429688 -43.97265625 21.52734375 C-43.96105469 20.81707031 -43.94945312 20.10679688 -43.9375 19.375 C-42.2875 19.045 -40.6375 18.715 -38.9375 18.375 C-38.834375 17.26125 -38.73125 16.1475 -38.625 15 C-38.398125 13.80375 -38.17125 12.6075 -37.9375 11.375 C-34.63461664 9.17307776 -33.66287273 9.13540032 -29.83203125 9.1796875 C-28.84912109 9.18613281 -27.86621094 9.19257813 -26.85351562 9.19921875 C-25.31727539 9.22435547 -25.31727539 9.22435547 -23.75 9.25 C-22.71423828 9.25902344 -21.67847656 9.26804687 -20.61132812 9.27734375 C-18.05315315 9.3009214 -15.49544252 9.3338297 -12.9375 9.375 C-12.751875 7.704375 -12.751875 7.704375 -12.5625 6 C-11.28004427 -1.43824321 -6.30195519 0.00879547 0 0 Z M-6.9375 4.375 C-7.2675 6.025 -7.5975 7.675 -7.9375 9.375 C-2.6575 9.375 2.6225 9.375 8.0625 9.375 C7.7325 7.725 7.4025 6.075 7.0625 4.375 C2.4425 4.375 -2.1775 4.375 -6.9375 4.375 Z" transform="translate(63.9375,-0.375)"/><path fill="#070907" d="M0 0 C1.37961914 -0.03673828 1.37961914 -0.03673828 2.78710938 -0.07421875 C3.67076172 -0.07808594 4.55441406 -0.08195313 5.46484375 -0.0859375 C6.27429443 -0.09415527 7.08374512 -0.10237305 7.91772461 -0.11083984 C10.0625 0.375 10.0625 0.375 11.84985352 2.09130859 C13.25332371 4.7343648 13.308362 6.42465595 13.0625 9.375 C13.70799805 9.35405273 14.35349609 9.33310547 15.01855469 9.31152344 C17.94971068 9.22825795 20.88061777 9.17630794 23.8125 9.125 C24.82828125 9.09148438 25.8440625 9.05796875 26.890625 9.0234375 C34.40591493 8.92455211 34.40591493 8.92455211 37.75 11.21875 C39.32442512 13.80530556 39.39336214 15.39724072 39.0625 18.375 C40.7125 18.705 42.3625 19.035 44.0625 19.375 C44.11645478 20.99963842 44.15527195 22.62478541 44.1875 24.25 C44.21070312 25.15492187 44.23390625 26.05984375 44.2578125 26.9921875 C44.0625 29.375 44.0625 29.375 42.0625 31.375 C41.0725 31.375 40.0825 31.375 39.0625 31.375 C39.0625 32.365 39.0625 33.355 39.0625 34.375 C40.07570312 34.32279297 40.07570312 34.32279297 41.109375 34.26953125 C42.00140625 34.24246094 42.8934375 34.21539062 43.8125 34.1875 C45.13507813 34.13529297 45.13507813 34.13529297 46.484375 34.08203125 C49.58369245 34.43422641 50.90698656 35.13387037 53.0625 37.375 C53.0625 38.695 53.0625 40.015 53.0625 41.375 C55.0425 41.87 55.0425 41.87 57.0625 42.375 C57.1875 50.125 57.1875 50.125 56.0625 52.375 C55.0725 52.375 54.0825 52.375 53.0625 52.375 C53.01762451 53.09526367 52.97274902 53.81552734 52.92651367 54.55761719 C52.44005382 62.28524092 51.92174355 70.01023769 51.38330078 77.734375 C51.16141845 80.92145847 50.94729785 84.10895475 50.73779297 87.296875 C50.46435913 91.43392527 50.17010774 95.56907642 49.86270142 99.70373535 C49.7459112 101.31776348 49.63586177 102.93229354 49.53256226 104.54724121 C49.38591971 106.81965934 49.21538617 109.08909394 49.0390625 111.359375 C48.94705566 112.66616211 48.85504883 113.97294922 48.76025391 115.31933594 C48.0625 118.375 48.0625 118.375 46.00146484 119.81347656 C45.36160645 119.9987793 44.72174805 120.18408203 44.0625 120.375 C44.10375 121.32375 44.145 122.2725 44.1875 123.25 C44.0625 126.375 44.0625 126.375 42.0625 128.375 C39.39315905 128.57871324 36.82712927 128.65819469 34.15625 128.6496582 C32.93168091 128.6573246 32.93168091 128.6573246 31.68237305 128.66514587 C28.97567476 128.67908058 26.26922995 128.67808238 23.5625 128.67578125 C21.68684799 128.67966573 19.81119685 128.68399989 17.93554688 128.68876648 C14.00127309 128.69623681 10.06708904 128.69593131 6.1328125 128.69067383 C1.08168556 128.68487472 -3.96907524 128.70181689 -9.0201416 128.7250185 C-12.89422771 128.73972204 -16.76822492 128.74063223 -20.64233398 128.73750877 C-22.50513434 128.73802358 -24.36793947 128.743291 -26.23071289 128.75332069 C-28.83113689 128.76560412 -31.4308383 128.75894291 -34.03125 128.74731445 C-34.80637939 128.75495819 -35.58150879 128.76260193 -36.38012695 128.77047729 C-38.52148438 128.7492218 -38.52148438 128.7492218 -41.9375 128.375 C-44.0894437 125.14708445 -44.13836443 124.09099191 -43.9375 120.375 C-44.5759082 120.19606201 -45.21431641 120.01712402 -45.87207031 119.83276367 C-47.9375 118.375 -47.9375 118.375 -48.66699219 115.1730957 C-48.7927529 113.80067422 -48.89702687 112.42618184 -48.984375 111.05078125 C-49.07576752 109.94309639 -49.07576752 109.94309639 -49.16900635 108.81303406 C-49.29521152 107.24087077 -49.4122819 105.66795196 -49.52099609 104.09448242 C-49.68385934 101.74012935 -49.87229198 99.3890693 -50.06640625 97.03710938 C-52.10009799 71.36259916 -52.10009799 71.36259916 -49.9375 64.375 C-50.5975 64.375 -51.2575 64.375 -51.9375 64.375 C-52.2675 60.415 -52.5975 56.455 -52.9375 52.375 C-54.2575 52.045 -55.5775 51.715 -56.9375 51.375 C-56.9375 48.405 -56.9375 45.435 -56.9375 42.375 C-54.9575 41.88 -54.9575 41.88 -52.9375 41.375 C-52.834375 40.59125 -52.73125 39.8075 -52.625 39 C-51.9375 36.375 -51.9375 36.375 -48.9375 34.375 C-46.45703125 34.1796875 -46.45703125 34.1796875 -43.75 34.25 C-42.84894531 34.26804688 -41.94789062 34.28609375 -41.01953125 34.3046875 C-40.33246094 34.32789063 -39.64539063 34.35109375 -38.9375 34.375 C-38.9375 33.385 -38.9375 32.395 -38.9375 31.375 C-39.576875 31.230625 -40.21625 31.08625 -40.875 30.9375 C-42.9375 30.375 -42.9375 30.375 -43.9375 29.375 C-44.00955511 27.68891034 -44.02136068 25.99999341 -44 24.3125 C-43.99097656 23.39339844 -43.98195313 22.47429688 -43.97265625 21.52734375 C-43.96105469 20.81707031 -43.94945312 20.10679688 -43.9375 19.375 C-42.2875 19.045 -40.6375 18.715 -38.9375 18.375 C-38.834375 17.26125 -38.73125 16.1475 -38.625 15 C-38.398125 13.80375 -38.17125 12.6075 -37.9375 11.375 C-34.63461664 9.17307776 -33.66287273 9.13540032 -29.83203125 9.1796875 C-28.84912109 9.18613281 -27.86621094 9.19257813 -26.85351562 9.19921875 C-25.31727539 9.22435547 -25.31727539 9.22435547 -23.75 9.25 C-22.71423828 9.25902344 -21.67847656 9.26804687 -20.61132812 9.27734375 C-18.05315315 9.3009214 -15.49544252 9.3338297 -12.9375 9.375 C-12.751875 7.704375 -12.751875 7.704375 -12.5625 6 C-11.28004427 -1.43824321 -6.30195519 0.00879547 0 0 Z M-6.9375 4.375 C-7.2675 6.025 -7.5975 7.675 -7.9375 9.375 C-2.6575 9.375 2.6225 9.375 8.0625 9.375 C7.7325 7.725 7.4025 6.075 7.0625 4.375 C2.4425 4.375 -2.1775 4.375 -6.9375 4.375 Z M-39.9375 22.375 C-39.9375 24.025 -39.9375 25.675 -39.9375 27.375 C-33.0075 27.375 -26.0775 27.375 -18.9375 27.375 C-18.9375 28.365 -18.9375 29.355 -18.9375 30.375 C-23.8875 30.375 -28.8375 30.375 -33.9375 30.375 C-34.10201167 40.23199079 -33.45264828 49.92501159 -32.625 59.734375 C-32.49005293 61.37628751 -32.35553905 63.01823567 -32.22143555 64.66021729 C-31.87063497 68.94136339 -31.51402739 73.22200577 -31.15612793 77.50256348 C-30.72613696 82.66029437 -30.30350297 87.81863288 -29.87960815 92.97686768 C-29.23781452 100.77671994 -28.58679318 108.57575213 -27.9375 116.375 C-9.4575 116.375 9.0225 116.375 28.0625 116.375 C28.7225 110.105 29.3825 103.835 30.0625 97.375 C30.7225 97.375 31.3825 97.375 32.0625 97.375 C32.0625 103.645 32.0625 109.915 32.0625 116.375 C36.0225 116.375 39.9825 116.375 44.0625 116.375 C44.63884759 109.35038056 45.20824199 102.32524294 45.77148438 95.29956055 C45.96363175 92.91464409 46.15760581 90.52987401 46.35351562 88.14526367 C46.63644017 84.69748165 46.91256761 81.24920872 47.1875 77.80078125 C47.31874268 76.2280822 47.31874268 76.2280822 47.45263672 74.62361145 C48.03639564 67.18784269 48.13377005 59.83385574 48.0625 52.375 C44.1025 52.375 40.1425 52.375 36.0625 52.375 C35.0725 64.915 34.0825 77.455 33.0625 90.375 C31.5775 90.87 31.5775 90.87 30.0625 91.375 C30.1126123 90.78777161 30.16272461 90.20054321 30.21435547 89.59552002 C30.73945146 83.43055379 31.25744103 77.26501852 31.77148438 71.09912109 C31.96370772 68.80437434 32.15768471 66.50977373 32.35351562 64.21533203 C32.63623568 60.89914121 32.91244393 57.58245927 33.1875 54.265625 C33.31874268 52.75080536 33.31874268 52.75080536 33.45263672 51.2053833 C34.02582861 44.19026996 34.0625 37.46688753 34.0625 30.375 C18.5525 30.375 3.0425 30.375 -12.9375 30.375 C-12.9375 29.385 -12.9375 28.395 -12.9375 27.375 C4.5525 27.375 22.0425 27.375 40.0625 27.375 C40.0625 25.725 40.0625 24.075 40.0625 22.375 C13.6625 22.375 -12.7375 22.375 -39.9375 22.375 Z" transform="translate(63.9375,-0.375)"/><path fill="#E1EDF6" d="M0 0 C3.6304331 2.61015621 6.01367748 5.80211705 8.265625 9.62890625 C8.63945313 10.25152344 9.01328125 10.87414063 9.3984375 11.515625 C11.4511827 16.51803559 11.02188196 22.79054945 9.6484375 27.9453125 C6.954484 34.03650825 1.96827866 38.26332197 -3.5625 41.796875 C-9.14319447 43.93480292 -16.62287835 43.72477929 -22.21875 41.75390625 C-28.47397571 38.06865699 -33.47111409 32.55182198 -35.734375 25.62890625 C-36.66728502 18.59771077 -36.21899476 12.6431832 -32.359375 6.6015625 C-23.78066254 -3.8124995 -11.87552942 -6.55394784 0 0 Z" transform="translate(76.734375,44.37109375)"/><path fill="#86C6FB" d="M0 0 C3.96 0 7.92 0 12 0 C12.57703724 6.86382725 13.14638713 13.72823577 13.70898438 20.59326172 C13.90094343 22.92285874 14.09490968 25.25229136 14.29101562 27.58154297 C15.31438465 39.75232464 16.28380963 51.7784476 16 64 C12.04 64 8.08 64 4 64 C3.56935805 58.43181483 3.142223 52.86337556 2.71826172 47.29467773 C2.5737057 45.40235218 2.42821047 43.51009812 2.28173828 41.61791992 C2.07073866 38.88999631 1.86317608 36.16182902 1.65625 33.43359375 C1.59062866 32.59477158 1.52500732 31.7559494 1.45739746 30.89170837 C1.1086484 26.24479085 0.93432796 21.65997853 1 17 C0.01 17 -0.98 17 -2 17 C-2.042721 15.33388095 -2.04063832 13.66617115 -2 12 C-1.67 11.67 -1.34 11.34 -1 11 C-0.76636119 9.15108054 -0.58696365 7.29511969 -0.4375 5.4375 C-0.293125 3.643125 -0.14875 1.84875 0 0 Z" transform="translate(16,52)"/><path fill="#FCDE74" d="M0 0 C3.96 0 7.92 0 12 0 C12.08157535 8.5373705 11.83476549 16.92056372 11.125 25.42578125 C11.03621582 26.53938522 10.94743164 27.6529892 10.85595703 28.80033875 C10.57545835 32.30480062 10.2878631 35.80863618 10 39.3125 C9.80681878 41.71024841 9.61410637 44.10803463 9.421875 46.50585938 C8.95332548 52.33769005 8.47841731 58.16897088 8 64 C4.04 64 0.08 64 -4 64 C-3.98839844 62.64003906 -3.97679688 61.28007813 -3.96484375 59.87890625 C-3.95546738 58.1067722 -3.94636702 56.33463667 -3.9375 54.5625 C-3.92912109 53.66466797 -3.92074219 52.76683594 -3.91210938 51.84179688 C-3.90888672 50.98779297 -3.90566406 50.13378906 -3.90234375 49.25390625 C-3.89710693 48.46314697 -3.89187012 47.6723877 -3.88647461 46.85766602 C-3.79504091 44.98407311 -3.79504091 44.98407311 -5 44 C-5.04063832 42.33382885 -5.042721 40.66611905 -5 39 C-4.01 38.505 -4.01 38.505 -3 38 C-2.60597519 35.17538967 -2.33858835 32.43028046 -2.1484375 29.58984375 C-2.08467926 28.74780899 -2.02092102 27.90577423 -1.95523071 27.03822327 C-1.75288517 24.3385571 -1.5638126 21.63814317 -1.375 18.9375 C-1.24045395 17.11126377 -1.10504859 15.28509064 -0.96875 13.45898438 C-0.63584374 8.9733286 -0.31484107 4.48695846 0 0 Z" transform="translate(100,52)"/><path fill="#0C100D" d="M0 0 C7.3198243 4.98251903 12.26917035 11.23395208 13.9375 20 C15.29593406 28.41397421 12.71069918 35.05982696 7.9375 42 C2.72518376 47.34239186 -2.70237231 50.53477546 -10.2109375 51.3359375 C-17.20610746 51.42062479 -22.2541124 51.01913717 -28.0625 47 C-29.09375 46.34 -30.125 45.68 -31.1875 45 C-36.133505 40.58392411 -39.3887636 33.76854182 -40.54296875 27.3125 C-40.81234373 19.10297687 -38.61632355 12.48944501 -33.375 6.1875 C-24.77305183 -2.67793126 -11.54365786 -5.85116678 0 0 Z M-31 8.9375 C-31.680625 9.948125 -32.36125 10.95875 -33.0625 12 C-33.660625 12.86625 -34.25875 13.7325 -34.875 14.625 C-37.09626247 20.93806175 -37.28652959 28.10171255 -34.5625 34.3125 C-31.3851776 39.74799082 -25.97570309 44.73469018 -20.0625 47 C-12.74343209 47.85629489 -5.80484646 48.15112296 0.2578125 43.55859375 C5.403958 38.78344944 9.28955103 34.40480695 10.34375 27.23828125 C10.59681455 19.34055855 9.04228357 14.10111194 3.9375 8 C-1.79256228 2.65948142 -7.62915075 0.44785412 -15.3671875 0.62109375 C-21.39663989 1.46871242 -26.96130529 4.35466978 -31 8.9375 Z" transform="translate(77.0625,40)"/><path fill="#73D199" d="M0 0 C15.18 0 30.36 0 46 0 C46 7.10694478 45.9846179 13.89927686 45.34375 20.921875 C45.20696457 22.54166104 45.070248 24.16145289 44.93359375 25.78125 C44.71841469 28.25995659 44.50102193 30.73845008 44.28173828 33.21679688 C43.40529774 43.20941152 42.85085733 53.04496953 43.04492188 63.07910156 C43 66 43 66 42 67 C41.77428816 68.41120902 41.60611651 69.83176043 41.46484375 71.25390625 C41.37783203 72.10791016 41.29082031 72.96191406 41.20117188 73.84179688 C41.11416016 74.73962891 41.02714844 75.63746094 40.9375 76.5625 C40.84662109 77.46419922 40.75574219 78.36589844 40.66210938 79.29492188 C40.43746077 81.52958434 40.21694231 83.76457839 40 86 C37.69 86 35.38 86 33 86 C33.06058594 85.13834229 33.12117188 84.27668457 33.18359375 83.38891602 C33.40970859 80.15177772 33.63301161 76.91446037 33.85449219 73.67700195 C33.95039383 72.28337089 34.04737341 70.88981352 34.14550781 69.49633789 C34.83059617 60.12917487 34.83059617 60.12917487 34.96875 50.7421875 C35 47 35 47 36.5 43.5625 C38.63319465 38.49616271 38.83192085 33.17383502 37.4296875 27.82421875 C36.76745911 23.47157216 37.39132803 19.29368848 37.875 14.9375 C38.01228516 13.59075195 38.01228516 13.59075195 38.15234375 12.21679688 C38.56040403 8.35171889 39.05384269 4.78462925 40 1 C26.8 1 13.6 1 0 1 C0 0.67 0 0.34 0 0 Z" transform="translate(52,30)"/><path fill="#8B8B95" d="M0 0 C26.4 0 52.8 0 80 0 C80 1.65 80 3.3 80 5 C62.51 5 45.02 5 27 5 C26.67 5.66 26.34 6.32 26 7 C24.35 7 22.7 7 21 7 C21 6.34 21 5.68 21 5 C14.07 5 7.14 5 0 5 C0 3.35 0 1.7 0 0 Z" transform="translate(24,22)"/><path fill="#86868F" d="M0 0 C22.44 0 44.88 0 68 0 C68.495 2.475 68.495 2.475 69 5 C45.9 5 22.8 5 -1 5 C-0.67 3.35 -0.34 1.7 0 0 Z" transform="translate(30,13)"/><path fill="#F7CB58" d="M0 0 C1.65 0 3.3 0 5 0 C4.53526935 13.50923924 3.5897798 26.96670653 2.5 40.4375 C2.43428802 41.25962982 2.36857605 42.08175964 2.3008728 42.92880249 C2.11002999 45.30567372 1.91518283 47.68217858 1.71875 50.05859375 C1.66145218 50.77041809 1.60415436 51.48224243 1.54512024 52.21563721 C1.21027026 56.18537773 0.71244322 60.08041564 0 64 C-1.32 64 -2.64 64 -4 64 C-3.99476318 63.42967041 -3.98952637 62.85934082 -3.98413086 62.27172852 C-3.96341779 59.70199677 -3.9503581 57.13228253 -3.9375 54.5625 C-3.92912109 53.66466797 -3.92074219 52.76683594 -3.91210938 51.84179688 C-3.90888672 50.98779297 -3.90566406 50.13378906 -3.90234375 49.25390625 C-3.89710693 48.46314697 -3.89187012 47.6723877 -3.88647461 46.85766602 C-3.79504091 44.98407311 -3.79504091 44.98407311 -5 44 C-5.04063832 42.33382885 -5.042721 40.66611905 -5 39 C-4.01 38.505 -4.01 38.505 -3 38 C-2.60597519 35.17538967 -2.33858835 32.43028046 -2.1484375 29.58984375 C-2.08467926 28.74780899 -2.02092102 27.90577423 -1.95523071 27.03822327 C-1.75288517 24.3385571 -1.5638126 21.63814317 -1.375 18.9375 C-1.24045395 17.11126377 -1.10504859 15.28509064 -0.96875 13.45898438 C-0.63584374 8.9733286 -0.31484107 4.48695846 0 0 Z" transform="translate(100,52)"/><path fill="#5BAEF3" d="M0 0 C1.65 0 3.3 0 5 0 C5.57777605 6.86376117 6.14638746 13.72823986 6.70898438 20.59326172 C6.90094343 22.92285874 7.09490968 25.25229136 7.29101562 27.58154297 C9.37857926 52.40863909 9.37857926 52.40863909 9 64 C7.68 64 6.36 64 5 64 C3.65615969 52.4566015 2.49555746 40.91270272 1.56738281 29.32836914 C1.37251821 26.90665721 1.17081364 24.48557388 0.96875 22.06445312 C0.36585488 14.7008421 -0.18807977 7.39495476 0 0 Z" transform="translate(23,52)"/><path fill="#9999A4" d="M0 0 C15.18 0 30.36 0 46 0 C46 1.32 46 2.64 46 4 C32.635 4.495 32.635 4.495 19 5 C18.67 5.66 18.34 6.32 18 7 C16.35 7 14.7 7 13 7 C12.67 6.34 12.34 5.68 12 5 C9.1840151 4.53101037 9.1840151 4.53101037 5.9375 4.375 C4.83277344 4.30023438 3.72804687 4.22546875 2.58984375 4.1484375 C1.73519531 4.09945312 0.88054688 4.05046875 0 4 C0 2.68 0 1.36 0 0 Z" transform="translate(41,120)"/><path fill="#CFE2F3" d="M0 0 C4.05277382 5.40369843 3.73450082 9.44014782 3 16 C1.02167745 23.37827216 -4.59530927 28.12074329 -10.8046875 32.1796875 C-13.94747726 33.35403954 -16.78226855 33.26395713 -20.125 33.25 C-21.36507812 33.25515625 -22.60515625 33.2603125 -23.8828125 33.265625 C-27 33 -27 33 -29 31 C-27.83984375 30.85304688 -27.83984375 30.85304688 -26.65625 30.703125 C-17.24094715 29.35142311 -9.74577692 26.91442135 -3 20 C-2.49620971 17.28694223 -2.49620971 17.28694223 -3 15 C-2.34 15 -1.68 15 -1 15 C-0.67 10.05 -0.34 5.1 0 0 Z" transform="translate(84,54)"/><path fill="#121314" d="M0 0 C0.99 0 1.98 0 3 0 C2.125 5.75 2.125 5.75 1 8 C4.63 8 8.26 8 12 8 C12 7.01 12 6.02 12 5 C15.26954202 5.56371414 16.82575883 6.49962266 19 9 C17.95125002 11.62187494 17.35068687 12.79371361 14.875 14.25 C14.25625 14.4975 13.6375 14.745 13 15 C12.67 14.01 12.34 13.02 12 12 C11.16855469 12.03480469 10.33710937 12.06960937 9.48046875 12.10546875 C7.85044922 12.14607422 7.85044922 12.14607422 6.1875 12.1875 C5.10855469 12.22230469 4.02960937 12.25710937 2.91796875 12.29296875 C0 12 0 12 -1.8984375 10.67578125 C-3 9 -3 9 -2.8125 6 C-2 3 -2 3 0 0 Z" transform="translate(49,65)"/><path fill="#131516" d="M0 0 C5.75 -0.125 5.75 -0.125 8 1 C8 1.99 8 2.98 8 4 C7.34 4 6.68 4 6 4 C6.37253906 4.59167969 6.74507813 5.18335938 7.12890625 5.79296875 C7.60199219 6.58316406 8.07507813 7.37335938 8.5625 8.1875 C9.03816406 8.96480469 9.51382813 9.74210937 10.00390625 10.54296875 C11.21450028 13.52910069 11.01172 14.97500805 10 18 C8 20 8 20 6.0546875 20.1953125 C4.03645833 20.13020833 2.01822917 20.06510417 0 20 C0 18.68 0 17.36 0 16 C2.31 16 4.62 16 7 16 C5.68 13.36 4.36 10.72 3 8 C1.68 8 0.36 8 -1 8 C-0.67 5.36 -0.34 2.72 0 0 Z" transform="translate(71,57)"/><path fill="#0E0F0F" d="M0 0 C3 0.5 3 0.5 4.875 2.25 C6 4.5 6 4.5 6 8.5 C4.68 8.17 3.36 7.84 2 7.5 C1.67 6.18 1.34 4.86 1 3.5 C-1.62400522 5.87409996 -3.44568209 8.31364829 -5 11.5 C-4.79356801 13.75328412 -4.79356801 13.75328412 -4 15.5 C-6.35438733 16.92944945 -7.48032433 17.58661261 -10.25 17.125 C-11.11625 16.815625 -11.11625 16.815625 -12 16.5 C-12.33 14.19 -12.66 11.88 -13 9.5 C-11.35 9.5 -9.7 9.5 -8 9.5 C-7.5978125 8.38625 -7.5978125 8.38625 -7.1875 7.25 C-4.37142857 0.72857143 -4.37142857 0.72857143 0 0 Z" transform="translate(64,45.5)"/><path fill="#7D7D85" d="M0 0 C22.44 0 44.88 0 68 0 C68.495 2.475 68.495 2.475 69 5 C66.69 5 64.38 5 62 5 C62 3.68 62 2.36 62 1 C41.54 1 21.08 1 0 1 C0 0.67 0 0.34 0 0 Z" transform="translate(30,13)"/><path fill="#7C7C85" d="M0 0 C15.18 0 30.36 0 46 0 C46 1.32 46 2.64 46 4 C43.69 4 41.38 4 39 4 C39 3.01 39 2.02 39 1 C26.46 1 13.92 1 1 1 C0.67 1.99 0.34 2.98 0 4 C0 2.68 0 1.36 0 0 Z" transform="translate(41,120)"/><path fill="#696973" d="M0 0 C4.62 0 9.24 0 14 0 C14 1.32 14 2.64 14 4 C9.38 4 4.76 4 0 4 C0 2.68 0 1.36 0 0 Z" transform="translate(90,120)"/><path fill="#65656F" d="M0 0 C4.62 0 9.24 0 14 0 C14 1.32 14 2.64 14 4 C9.38 4 4.76 4 0 4 C0 2.68 0 1.36 0 0 Z" transform="translate(24,120)"/><path fill="#878791" d="M0 0 C5.28 0 10.56 0 16 0 C16 0.99 16 1.98 16 3 C10.72 3 5.44 3 0 3 C0 2.01 0 1.02 0 0 Z" transform="translate(101,45)"/><path fill="#888891" d="M0 0 C5.28 0 10.56 0 16 0 C16 0.99 16 1.98 16 3 C10.72 3 5.44 3 0 3 C0 2.01 0 1.02 0 0 Z" transform="translate(11,45)"/><path fill="#696974" d="M0 0 C2.31 0 4.62 0 7 0 C7.33 1.65 7.66 3.3 8 5 C5.69 5 3.38 5 1 5 C0.67 3.35 0.34 1.7 0 0 Z" transform="translate(91,13)"/><path fill="#6A6A72" d="M0 0 C3.3 0 6.6 0 10 0 C10.33 0.99 10.66 1.98 11 3 C7.37 3 3.74 3 0 3 C0 2.01 0 1.02 0 0 Z" transform="translate(102,38)"/><path fill="#6A6A72" d="M0 0 C3.3 0 6.6 0 10 0 C10 0.99 10 1.98 10 3 C6.37 3 2.74 3 -1 3 C-0.67 2.01 -0.34 1.02 0 0 Z" transform="translate(16,38)"/><path fill="#818189" d="M0 0 C0.763125 0.0825 1.52625 0.165 2.3125 0.25 C2.3125 1.57 2.3125 2.89 2.3125 4.25 C-0.3275 4.25 -2.9675 4.25 -5.6875 4.25 C-3.34903846 0.31153846 -3.34903846 0.31153846 0 0 Z" transform="translate(101.6875,119.75)"/><path fill="#83838C" d="M0 0 C1.98 0 3.96 0 6 0 C6 1.32 6 2.64 6 4 C4.02 4 2.04 4 0 4 C0 2.68 0 1.36 0 0 Z" transform="translate(98,22)"/><path fill="#888891" d="M0 0 C1.98 0 3.96 0 6 0 C6 0.99 6 1.98 6 3 C4.02 3 2.04 3 0 3 C0 2.01 0 1.02 0 0 Z" transform="translate(80,121)"/><path fill="#878790" d="M0 0 C2.375 -0.1875 2.375 -0.1875 5 0 C5.66 0.99 6.32 1.98 7 3 C4.69 3 2.38 3 0 3 C0 2.01 0 1.02 0 0 Z" transform="translate(25,121)"/></svg>